<?xml version="1.0" encoding="utf-8"?>
<svg width="27px" height="18px" viewBox="0 0 27 18" version="1.1" xmlns:xlink="http://www.w3.org/1999/xlink" xmlns="http://www.w3.org/2000/svg">
  <desc>Created with Lunacy</desc>
  <g id="Group-3">
    <path d="M1 0L26 0Q26.1027 0 26.2014 0.0186045Q26.3002 0.037209 26.3917 0.0738122Q26.4832 0.110415 26.5645 0.163826Q26.6458 0.217236 26.7143 0.285714Q26.7828 0.354193 26.8362 0.43551Q26.8896 0.516827 26.9262 0.608335Q26.9628 0.699843 26.9814 0.798563Q27 0.897283 27 1L27 1Q27 1.10272 26.9814 1.20144Q26.9628 1.30016 26.9262 1.39167Q26.8896 1.48317 26.8362 1.56449Q26.7828 1.64581 26.7143 1.71429Q26.6458 1.78276 26.5645 1.83617Q26.4832 1.88958 26.3917 1.92619Q26.3002 1.96279 26.2014 1.9814Q26.1027 2 26 2L1 2Q0.897283 2 0.798563 1.9814Q0.699843 1.96279 0.608335 1.92619Q0.516827 1.88958 0.43551 1.83617Q0.354193 1.78276 0.285714 1.71429Q0.217236 1.64581 0.163826 1.56449Q0.110415 1.48317 0.0738122 1.39167Q0.037209 1.30016 0.0186045 1.20144Q0 1.10272 0 1L0 1Q0 0.897283 0.0186045 0.798563Q0.037209 0.699843 0.0738122 0.608335Q0.110415 0.516827 0.163826 0.43551Q0.217236 0.354193 0.285714 0.285714Q0.354193 0.217236 0.43551 0.163826Q0.516827 0.110415 0.608335 0.0738122Q0.699843 0.037209 0.798563 0.0186045Q0.897283 0 1 0Z" id="Rectangle" fill="#8E8888" stroke="none" />
    <path d="M1 0L19 0Q19.1027 0 19.2014 0.0186045Q19.3002 0.037209 19.3917 0.0738122Q19.4832 0.110415 19.5645 0.163826Q19.6458 0.217236 19.7143 0.285714Q19.7828 0.354193 19.8362 0.43551Q19.8896 0.516827 19.9262 0.608335Q19.9628 0.699843 19.9814 0.798563Q20 0.897283 20 1L20 1Q20 1.10272 19.9814 1.20144Q19.9628 1.30016 19.9262 1.39167Q19.8896 1.48317 19.8362 1.56449Q19.7828 1.64581 19.7143 1.71429Q19.6458 1.78276 19.5645 1.83617Q19.4832 1.88958 19.3917 1.92619Q19.3002 1.96279 19.2014 1.9814Q19.1027 2 19 2L1 2Q0.897283 2 0.798563 1.9814Q0.699843 1.96279 0.608335 1.92619Q0.516827 1.88958 0.43551 1.83617Q0.354193 1.78276 0.285714 1.71429Q0.217236 1.64581 0.163826 1.56449Q0.110415 1.48317 0.0738122 1.39167Q0.037209 1.30016 0.0186045 1.20144Q0 1.10272 0 1L0 1Q0 0.897283 0.0186045 0.798563Q0.037209 0.699843 0.0738122 0.608335Q0.110415 0.516827 0.163826 0.43551Q0.217236 0.354193 0.285714 0.285714Q0.354193 0.217236 0.43551 0.163826Q0.516827 0.110415 0.608335 0.0738122Q0.699843 0.037209 0.798563 0.0186045Q0.897283 0 1 0Z" transform="translate(0 8)" id="Rectangle-Copy-2" fill="#8E8888" stroke="none" />
    <path d="M1 0L12 0Q12.1027 0 12.2014 0.0186045Q12.3002 0.037209 12.3917 0.0738122Q12.4832 0.110415 12.5645 0.163826Q12.6458 0.217236 12.7143 0.285714Q12.7828 0.354193 12.8362 0.43551Q12.8896 0.516827 12.9262 0.608335Q12.9628 0.699843 12.9814 0.798563Q13 0.897283 13 1L13 1Q13 1.10272 12.9814 1.20144Q12.9628 1.30016 12.9262 1.39167Q12.8896 1.48317 12.8362 1.56449Q12.7828 1.64581 12.7143 1.71429Q12.6458 1.78276 12.5645 1.83617Q12.4832 1.88958 12.3917 1.92619Q12.3002 1.96279 12.2014 1.9814Q12.1027 2 12 2L1 2Q0.897283 2 0.798563 1.9814Q0.699843 1.96279 0.608335 1.92619Q0.516827 1.88958 0.43551 1.83617Q0.354193 1.78276 0.285714 1.71429Q0.217236 1.64581 0.163826 1.56449Q0.110415 1.48317 0.0738122 1.39167Q0.037209 1.30016 0.0186045 1.20144Q0 1.10272 0 1L0 1Q0 0.897283 0.0186045 0.798563Q0.037209 0.699843 0.0738122 0.608335Q0.110415 0.516827 0.163826 0.43551Q0.217236 0.354193 0.285714 0.285714Q0.354193 0.217236 0.43551 0.163826Q0.516827 0.110415 0.608335 0.0738122Q0.699843 0.037209 0.798563 0.0186045Q0.897283 0 1 0Z" transform="translate(0 16)" id="Rectangle-Copy-3" fill="#8E8888" stroke="none" />
  </g>
</svg>